<svg width="65" height="50" viewBox="0 0 65 50" fill="none" xmlns="http://www.w3.org/2000/svg">
<path d="M5.26667 40.4667V2C5.26667 1.44771 5.71438 1 6.26667 1H58.1333C58.6856 1 59.1333 1.44772 59.1333 2V40.4667M2 49H62.4C62.9523 49 63.4 48.5523 63.4 48V45.2C63.4 44.6477 62.9523 44.2 62.4 44.2H2C1.44772 44.2 1 44.6477 1 45.2V48C1 48.5523 1.44772 49 2 49Z" stroke="white" stroke-width="2" stroke-linecap="round"/>
<path d="M9.46655 37.8666V4.66663V4.66663H54.9332V37.8666H9.46655Z" stroke="white" stroke-width="2" stroke-linecap="round"/>
<path d="M25 31.4H22.8667V27.6667L25 25.5333V31.4Z" fill="white" stroke="white" stroke-linecap="round"/>
<path d="M28.7334 31.4H26.6001V23.9334L28.7334 21.8V31.4Z" fill="white" stroke="white" stroke-linecap="round"/>
<path d="M32.4666 31.4H30.3333V21.8L32.4666 23.9334V31.4Z" fill="white" stroke="white" stroke-linecap="round"/>
<path d="M36.2 31.4001H34.0667V23.9334L36.2 21.2667V31.4001Z" fill="white" stroke="white" stroke-linecap="round"/>
<path d="M39.9334 31.4H37.8V19.6667L39.9334 17V31.4Z" fill="white" stroke="white" stroke-linecap="round"/>
<path d="M38.8667 11.1333L39.9334 12.2L39.8878 12.2491L41.5334 13.2667L43.1334 9L38.8667 11.1333Z" fill="white"/>
<path d="M21.8 24.4667L28.7334 16.4667L33 19.6667L39.8878 12.2491M39.8878 12.2491L39.9334 12.2L38.8667 11.1333L43.1334 9L41.5334 13.2667L39.8878 12.2491Z" stroke="white" stroke-linecap="round"/>
</svg>
