<svg width="52" height="42" viewBox="0 0 52 42" fill="none" xmlns="http://www.w3.org/2000/svg">
<path d="M4.4188 33.3932V2.76922C4.4188 2.21694 4.86652 1.76923 5.4188 1.76923H46.5812C47.1335 1.76923 47.5812 2.21694 47.5812 2.76923V33.3932M2 40.2308H50C50.5523 40.2308 51 39.7831 51 39.2308V37.3846C51 36.8323 50.5523 36.3846 50 36.3846H2C1.44772 36.3846 1 36.8323 1 37.3846V39.2308C1 39.7831 1.44771 40.2308 2 40.2308Z" stroke="#464646" stroke-width="2" stroke-linecap="round"/>
<path d="M7.98291 31.1114V4.90625L44.0171 4.90625V31.1114H7.98291Z" stroke="#464646" stroke-width="2" stroke-linecap="round"/>
<path d="M20.2311 26.128H18.5217V23.1365L20.2311 21.4271V26.128Z" fill="#464646" stroke="#464646" stroke-linecap="round"/>
<path d="M23.2219 26.1283H21.5125V20.1454L23.2219 18.436V26.1283Z" fill="#464646" stroke="#464646" stroke-linecap="round"/>
<path d="M26.214 26.1283H24.5046V18.436L26.214 20.1454V26.1283Z" fill="#464646" stroke="#464646" stroke-linecap="round"/>
<path d="M29.2048 26.1284H27.4954V20.1455L29.2048 18.0088V26.1284Z" fill="#464646" stroke="#464646" stroke-linecap="round"/>
<path d="M32.197 26.1281H30.4875V16.7264L32.197 14.5897V26.1281Z" fill="#464646" stroke="#464646" stroke-linecap="round"/>
<path d="M31.3425 9.88885L32.1972 10.7435L32.1606 10.7829L33.4792 11.5982L34.7613 8.17944L31.3425 9.88885Z" fill="#464646"/>
<path d="M17.6672 20.5726L23.2228 14.1623L26.6416 16.7265L32.1606 10.7829M32.1606 10.7829L32.1972 10.7435L31.3425 9.88885L34.7613 8.17944L33.4792 11.5982L32.1606 10.7829Z" stroke="#464646" stroke-linecap="round"/>
</svg>
