<svg width="67" height="50" viewBox="0 0 67 50" fill="none" xmlns="http://www.w3.org/2000/svg">
<path d="M65.0654 8.98995H23.3262V15.1489H65.0654V8.98995Z" fill="white"/>
<path d="M45.9644 29.2978H62.0654C63.7222 29.2978 65.0654 27.9546 65.0654 26.2978V15.1489M23.3262 8.98995V4C23.3262 2.34314 24.6693 1 26.3262 1H62.0654C63.7222 1 65.0654 2.34315 65.0654 4V8.98995M23.3262 8.98995H65.0654M23.3262 8.98995V15.1489M65.0654 8.98995V15.1489M65.0654 15.1489H23.3262M23.3262 15.1489V18" stroke="white" stroke-width="2"/>
<path d="M42.7392 34.8511V28.6922H21.8696H1V35.9123H42.7392V34.8511Z" fill="white"/>
<path d="M42.7392 28.6922V34.8511V35.9123M42.7392 28.6922V23.7023C42.7392 22.0454 41.396 20.7023 39.7392 20.7023H4C2.34315 20.7023 1 22.0454 1 23.7023V28.6922M42.7392 28.6922H21.8696H1M1 28.6922V35.9123M42.7392 35.9123V46C42.7392 47.6569 41.396 49 39.7392 49H4C2.34315 49 1 47.6569 1 46V35.9123M42.7392 35.9123H1" stroke="white" stroke-width="2"/>
</svg>
