<svg width="52" height="40" viewBox="0 0 52 40" fill="none" xmlns="http://www.w3.org/2000/svg">
<path d="M51 7.50507H18.4248V12.3118H51V7.50507Z" fill="#464646"/>
<path d="M36.0927 23.3542H48C49.6568 23.3542 51 22.0111 51 20.3542V12.3118M18.4248 7.50507V4.26934C18.4248 2.61248 19.768 1.26934 21.4248 1.26934H48C49.6568 1.26934 51 2.61249 51 4.26934V7.50507M18.4248 7.50507H51M18.4248 7.50507V12.3118M51 7.50507V12.3118M51 12.3118H18.4248M18.4248 12.3118V14.5369" stroke="#464646" stroke-width="2"/>
<path d="M33.5752 27.6882V22.8815H17.2876H1V28.5164H33.5752V27.6882Z" fill="#464646"/>
<path d="M33.5752 22.8815V27.6882V28.5164M33.5752 22.8815V19.6458C33.5752 17.9889 32.232 16.6458 30.5752 16.6458H4C2.34315 16.6458 1 17.9889 1 19.6458V22.8815M33.5752 22.8815H17.2876H1M1 22.8815V28.5164M33.5752 28.5164V35.7307C33.5752 37.3875 32.232 38.7307 30.5752 38.7307H4C2.34314 38.7307 1 37.3875 1 35.7307V28.5164M33.5752 28.5164H1" stroke="#464646" stroke-width="2"/>
</svg>
