<svg width="47" height="51" viewBox="0 0 47 51" fill="none" xmlns="http://www.w3.org/2000/svg">
<path d="M2.23584 49.6482L43.6448 50.0001" stroke="white" stroke-width="2" stroke-linecap="round"/>
<path d="M4.45288 42.9326V22.9321C4.45288 21.8276 5.34831 20.9321 6.45288 20.9321H8.74541C9.84998 20.9321 10.7454 21.8276 10.7454 22.9321V42.9326C10.7454 44.0372 9.84998 44.9326 8.74541 44.9326H6.45288C5.34831 44.9326 4.45288 44.0372 4.45288 42.9326Z" stroke="white" stroke-width="2" stroke-linecap="round"/>
<path d="M14.7097 42.9324V22.9319C14.7097 21.8273 15.6051 20.9319 16.7097 20.9319H19.0022C20.1068 20.9319 21.0022 21.8273 21.0022 22.9319V42.9324C21.0022 44.037 20.1068 44.9324 19.0022 44.9324H16.7097C15.6051 44.9324 14.7097 44.037 14.7097 42.9324Z" stroke="white" stroke-width="2" stroke-linecap="round"/>
<path d="M25.6709 42.9324V22.9319C25.6709 21.8273 26.5663 20.9319 27.6709 20.9319H29.9634C31.068 20.9319 31.9634 21.8273 31.9634 22.9319V42.9324C31.9634 44.037 31.068 44.9324 29.9634 44.9324H27.6709C26.5663 44.9324 25.6709 44.037 25.6709 42.9324Z" stroke="white" stroke-width="2" stroke-linecap="round"/>
<path d="M35.896 42.9324V22.9319C35.896 21.8273 36.7914 20.9319 37.896 20.9319H40.1885C41.2931 20.9319 42.1885 21.8273 42.1885 22.9319V42.9324C42.1885 44.037 41.2931 44.9324 40.1885 44.9324H37.896C36.7914 44.9324 35.896 44.037 35.896 42.9324Z" stroke="white" stroke-width="2" stroke-linecap="round"/>
<path d="M23.1021 2L43.1091 16.532H3.09509L23.1021 2Z" stroke="white" stroke-width="2"/>
<path d="M23.0386 14.0766C22.5766 14.0766 22.1412 14.0154 21.7322 13.893C21.3232 13.7705 20.9521 13.5977 20.6189 13.3745C20.2857 13.1441 19.9979 12.8705 19.7555 12.5537C19.5207 12.2297 19.3428 11.8661 19.2216 11.4629H18.6309V10.7392H19.0739C19.0663 10.6816 19.0625 10.6204 19.0625 10.5556C19.0625 10.4836 19.0625 10.4152 19.0625 10.3504C19.0625 10.2784 19.0625 10.21 19.0625 10.1452C19.0701 10.0804 19.0777 10.012 19.0853 9.94H18.6309V9.21637H19.2216C19.3428 8.82035 19.5245 8.46394 19.7669 8.14713C20.0092 7.83031 20.297 7.5603 20.6303 7.3371C20.9635 7.10669 21.3346 6.93028 21.7436 6.80787C22.1525 6.68547 22.5842 6.62427 23.0386 6.62427C23.4249 6.62427 23.7732 6.66747 24.0838 6.75387C24.3943 6.84028 24.6745 6.95908 24.9244 7.11029C25.1743 7.26149 25.394 7.4343 25.5833 7.62871C25.7726 7.82311 25.9393 8.02832 26.0832 8.24433L24.9471 8.79515C24.7654 8.49274 24.5041 8.24433 24.1633 8.04992C23.8225 7.84832 23.4476 7.74751 23.0386 7.74751C22.4933 7.74751 22.0086 7.88072 21.5845 8.14713C21.168 8.40634 20.8612 8.76275 20.6643 9.21637H23.7316V9.94H20.4485C20.4409 10.0048 20.4333 10.0732 20.4258 10.1452C20.4258 10.21 20.4258 10.2784 20.4258 10.3504C20.4258 10.4152 20.4258 10.4836 20.4258 10.5556C20.4258 10.6204 20.4333 10.6816 20.4485 10.7392H23.7316V11.4629H20.653C20.8499 11.9165 21.1566 12.2801 21.5732 12.5537C21.9973 12.8201 22.4858 12.9533 23.0386 12.9533C23.4476 12.9533 23.8225 12.8561 24.1633 12.6617C24.5041 12.4601 24.7654 12.2081 24.9471 11.9057L26.0832 12.4565C25.9393 12.6725 25.7689 12.8777 25.5719 13.0721C25.3826 13.2665 25.163 13.4393 24.913 13.5905C24.6707 13.7417 24.3943 13.8605 24.0838 13.947C23.7732 14.0334 23.4249 14.0766 23.0386 14.0766Z" fill="white"/>
</svg>
