<svg width="42" height="44" viewBox="0 0 42 44" fill="none" xmlns="http://www.w3.org/2000/svg">
<path d="M2.92407 42.3457L38.5503 42.6485" stroke="#464646" stroke-width="2" stroke-linecap="round"/>
<path d="M4.82983 36.289V19.6401C4.82983 18.5356 5.72526 17.6401 6.82983 17.6401H8.24362C9.34819 17.6401 10.2436 18.5356 10.2436 19.6401V36.289C10.2436 37.3936 9.34819 38.289 8.24362 38.289H6.82983C5.72526 38.289 4.82983 37.3936 4.82983 36.289Z" stroke="#464646" stroke-width="2" stroke-linecap="round"/>
<path d="M13.6543 36.2888V19.6399C13.6543 18.5353 14.5497 17.6399 15.6543 17.6399H17.0681C18.1726 17.6399 19.0681 18.5353 19.0681 19.6399V36.2888C19.0681 37.3933 18.1726 38.2888 17.0681 38.2888H15.6543C14.5497 38.2888 13.6543 37.3933 13.6543 36.2888Z" stroke="#464646" stroke-width="2" stroke-linecap="round"/>
<path d="M23.0847 36.2888V19.6399C23.0847 18.5353 23.9801 17.6399 25.0847 17.6399H26.4985C27.6031 17.6399 28.4985 18.5353 28.4985 19.6399V36.2888C28.4985 37.3933 27.6031 38.2888 26.4985 38.2888H25.0847C23.9801 38.2888 23.0847 37.3933 23.0847 36.2888Z" stroke="#464646" stroke-width="2" stroke-linecap="round"/>
<path d="M31.8826 36.2888V19.6399C31.8826 18.5353 32.778 17.6399 33.8826 17.6399H35.2963C36.4009 17.6399 37.2964 18.5353 37.2964 19.6399V36.2888C37.2964 37.3933 36.4009 38.2888 35.2964 38.2888H33.8826C32.778 38.2888 31.8826 37.3933 31.8826 36.2888Z" stroke="#464646" stroke-width="2" stroke-linecap="round"/>
<path d="M20.8759 1.35168L38.089 13.8543H3.66287L20.8759 1.35168Z" stroke="#464646" stroke-width="2"/>
</svg>
